<svg width="100%" viewBox="0 0 680 820" role="img" xmlns="http://www.w3.org/2000/svg">
  <title>Vexor – Redesigned Brand Identity System</title>
  <desc>Bold redesign of the Vexor procurement intelligence brand with electric indigo, warm cream, and electric coral palette, featuring a geometric diamond icon and premium typeface pairing.</desc>

  <defs>
    <linearGradient id="g1" x1="0%" y1="0%" x2="100%" y2="100%">
      <stop offset="0%" stop-color="#4F35E8"/>
      <stop offset="100%" stop-color="#7C5CFC"/>
    </linearGradient>
    <linearGradient id="g2" x1="0%" y1="100%" x2="100%" y2="0%">
      <stop offset="0%" stop-color="#FF4F6A"/>
      <stop offset="100%" stop-color="#FF8B6A"/>
    </linearGradient>
    <linearGradient id="ruleLine" x1="0%" y1="0%" x2="100%" y2="0%">
      <stop offset="0%" stop-color="#4F35E8" stop-opacity="1"/>
      <stop offset="60%" stop-color="#7C5CFC" stop-opacity="0.4"/>
      <stop offset="100%" stop-color="#7C5CFC" stop-opacity="0"/>
    </linearGradient>
    <clipPath id="oc">
      <rect x="0" y="0" width="80" height="80" rx="22"/>
    </clipPath>
  </defs>

  <!-- DARK HERO LOCKUP -->
  <rect x="40" y="24" width="600" height="220" rx="20" fill="#0D0A1E"/>

  <circle cx="80"  cy="50"  r="1.5" fill="#4F35E8" opacity="0.35"/>
  <circle cx="130" cy="50"  r="1.5" fill="#4F35E8" opacity="0.25"/>
  <circle cx="180" cy="50"  r="1.5" fill="#4F35E8" opacity="0.2"/>
  <circle cx="80"  cy="90"  r="1.5" fill="#4F35E8" opacity="0.2"/>
  <circle cx="130" cy="90"  r="1.5" fill="#7C5CFC" opacity="0.3"/>
  <circle cx="580" cy="70"  r="1.5" fill="#FF4F6A" opacity="0.3"/>
  <circle cx="610" cy="110" r="1.5" fill="#FF4F6A" opacity="0.2"/>
  <circle cx="580" cy="200" r="1.5" fill="#7C5CFC" opacity="0.25"/>

  <!-- ICON on dark -->
  <rect x="68" y="62" width="80" height="80" rx="22" fill="#4F35E8"/>
  <polygon points="108,72 128,108 108,108" fill="#7C5CFC"/>
  <polygon points="108,132 88,96  108,96"  fill="#3520C4"/>
  <polygon points="72,102 108,82 108,122"  fill="#6245F5"/>
  <polygon points="144,102 108,82 108,122" fill="#9B7BFF"/>
  <circle cx="108" cy="102" r="6" fill="#FEFCE8"/>
  <circle cx="131" cy="75" r="5" fill="#FF4F6A"/>

  <!-- WORDMARK on dark -->
  <text x="168" y="110"
    font-family="'Georgia', 'Times New Roman', serif"
    font-size="52"
    font-weight="700"
    fill="#FEFCE8"
    letter-spacing="-2">VEXOR</text>

  <text x="170" y="133"
    font-family="'Courier New', 'DM Mono', monospace"
    font-size="11"
    fill="#7C5CFC"
    letter-spacing="4.5">PROCUREMENT INTELLIGENCE</text>

  <rect x="168" y="142" width="72" height="3" rx="1.5" fill="#FF4F6A"/>

  <text x="168" y="180"
    font-family="'Georgia', serif"
    font-size="18"
    fill="#FEFCE8"
    letter-spacing="-0.3"
    opacity="0.85">Buy smarter.</text>
  <text x="310" y="180"
    font-family="'Georgia', serif"
    font-size="18"
    fill="#9B7BFF"
    letter-spacing="-0.3">Move faster.</text>

  <rect x="490" y="210" width="126" height="22" rx="11" fill="#4F35E8" opacity="0.6"/>
  <text x="553" y="225"
    font-family="'Courier New', monospace"
    font-size="10"
    fill="#FEFCE8"
    text-anchor="middle"
    letter-spacing="2">AI · ENTERPRISE · v2</text>

  <!-- SECTION: ICON VARIANTS -->
  <text x="40" y="278"
    font-family="'Courier New', monospace"
    font-size="10"
    fill="#7C5CFC"
    letter-spacing="3">ICON VARIANTS</text>
  <rect x="40" y="284" width="600" height="0.75" fill="#4F35E8" opacity="0.3"/>

  <!-- PRIMARY -->
  <rect x="40" y="298" width="80" height="80" rx="22" fill="#4F35E8"/>
  <polygon points="80,308 100,344 80,344" fill="#7C5CFC"/>
  <polygon points="80,368 60,332  80,332"  fill="#3520C4"/>
  <polygon points="44,338 80,318 80,358"   fill="#6245F5"/>
  <polygon points="116,338 80,318 80,358"  fill="#9B7BFF"/>
  <circle cx="80" cy="338" r="6" fill="#FEFCE8"/>
  <circle cx="103" cy="311" r="5" fill="#FF4F6A"/>
  <text x="80" y="400"
    font-family="'Courier New', monospace"
    font-size="10"
    fill="#6B7280"
    text-anchor="middle"
    letter-spacing="1.5">PRIMARY</text>

  <!-- DARK -->
  <rect x="148" y="298" width="80" height="80" rx="22" fill="#0D0A1E"/>
  <polygon points="188,308 208,344 188,344" fill="#7C5CFC"/>
  <polygon points="188,368 168,332 188,332" fill="#3520C4"/>
  <polygon points="152,338 188,318 188,358" fill="#6245F5"/>
  <polygon points="224,338 188,318 188,358" fill="#9B7BFF"/>
  <circle cx="188" cy="338" r="6" fill="#FEFCE8"/>
  <circle cx="211" cy="311" r="5" fill="#FF4F6A"/>
  <text x="188" y="400"
    font-family="'Courier New', monospace"
    font-size="10"
    fill="#6B7280"
    text-anchor="middle"
    letter-spacing="1.5">DARK</text>

  <!-- CORAL -->
  <rect x="256" y="298" width="80" height="80" rx="22" fill="#FF4F6A"/>
  <polygon points="296,308 316,344 296,344" fill="#FF8B6A"/>
  <polygon points="296,368 276,332 296,332" fill="#D93050"/>
  <polygon points="260,338 296,318 296,358" fill="#FF6B6B"/>
  <polygon points="332,338 296,318 296,358" fill="#FFAA88"/>
  <circle cx="296" cy="338" r="6" fill="#FEFCE8"/>
  <circle cx="319" cy="311" r="5" fill="#0D0A1E"/>
  <text x="296" y="400"
    font-family="'Courier New', monospace"
    font-size="10"
    fill="#6B7280"
    text-anchor="middle"
    letter-spacing="1.5">CORAL</text>

  <!-- MONO -->
  <rect x="364" y="298" width="80" height="80" rx="22" fill="#1C1C1E"/>
  <polygon points="404,308 424,344 404,344" fill="#555"/>
  <polygon points="404,368 384,332 404,332" fill="#111"/>
  <polygon points="368,338 404,318 404,358" fill="#3A3A3A"/>
  <polygon points="440,338 404,318 404,358" fill="#777"/>
  <circle cx="404" cy="338" r="6" fill="#FEFCE8"/>
  <circle cx="427" cy="311" r="4" fill="#888"/>
  <text x="404" y="400"
    font-family="'Courier New', monospace"
    font-size="10"
    fill="#6B7280"
    text-anchor="middle"
    letter-spacing="1.5">MONO</text>

  <!-- FAVICON -->
  <rect x="472" y="312" width="52" height="52" rx="14" fill="#4F35E8"/>
  <polygon points="498,320 510,342 498,342" fill="#7C5CFC"/>
  <polygon points="498,356 486,334 498,334" fill="#3520C4"/>
  <polygon points="476,338 498,326 498,350" fill="#6245F5"/>
  <polygon points="520,338 498,326 498,350" fill="#9B7BFF"/>
  <circle cx="498" cy="338" r="4" fill="#FEFCE8"/>
  <circle cx="513" cy="323" r="3.5" fill="#FF4F6A"/>
  <text x="498" y="400"
    font-family="'Courier New', monospace"
    font-size="10"
    fill="#6B7280"
    text-anchor="middle"
    letter-spacing="1.5">FAVICON</text>

  <!-- SECTION: PALETTE -->
  <text x="40" y="432"
    font-family="'Courier New', monospace"
    font-size="10"
    fill="#7C5CFC"
    letter-spacing="3">BRAND PALETTE</text>
  <rect x="40" y="438" width="600" height="0.75" fill="#4F35E8" opacity="0.3"/>

  <rect x="40"  y="452" width="108" height="64" rx="14" fill="#4F35E8"/>
  <text x="54"  y="476" font-family="'Courier New', monospace" font-size="9.5" fill="#C4B8FF" letter-spacing="1.5">INDIGO</text>
  <text x="54"  y="494" font-family="'Courier New', monospace" font-size="11" fill="#FEFCE8" font-weight="600">#4F35E8</text>
  <text x="94"  y="534" font-family="'Courier New', monospace" font-size="9" fill="#9B9B9B" text-anchor="middle">Primary</text>

  <rect x="160" y="452" width="108" height="64" rx="14" fill="#7C5CFC"/>
  <text x="174" y="476" font-family="'Courier New', monospace" font-size="9.5" fill="#E0D6FF" letter-spacing="1.5">VIOLET</text>
  <text x="174" y="494" font-family="'Courier New', monospace" font-size="11" fill="#FEFCE8" font-weight="600">#7C5CFC</text>
  <text x="214" y="534" font-family="'Courier New', monospace" font-size="9" fill="#9B9B9B" text-anchor="middle">Brand mid</text>

  <rect x="280" y="452" width="108" height="64" rx="14" fill="#FF4F6A"/>
  <text x="294" y="476" font-family="'Courier New', monospace" font-size="9.5" fill="#FFD6DD" letter-spacing="1.5">CORAL</text>
  <text x="294" y="494" font-family="'Courier New', monospace" font-size="11" fill="#FEFCE8" font-weight="600">#FF4F6A</text>
  <text x="334" y="534" font-family="'Courier New', monospace" font-size="9" fill="#9B9B9B" text-anchor="middle">Accent / CTA</text>

  <rect x="400" y="452" width="108" height="64" rx="14" fill="#0D0A1E"/>
  <text x="414" y="476" font-family="'Courier New', monospace" font-size="9.5" fill="#6245F5" letter-spacing="1.5">OBSIDIAN</text>
  <text x="414" y="494" font-family="'Courier New', monospace" font-size="11" fill="#FEFCE8" font-weight="600">#0D0A1E</text>
  <text x="454" y="534" font-family="'Courier New', monospace" font-size="9" fill="#9B9B9B" text-anchor="middle">BG / type</text>

  <rect x="520" y="452" width="108" height="64" rx="14" fill="#FEFCE8" stroke="#E8E4C0" stroke-width="1"/>
  <text x="534" y="476" font-family="'Courier New', monospace" font-size="9.5" fill="#4F35E8" letter-spacing="1.5">CREAM</text>
  <text x="534" y="494" font-family="'Courier New', monospace" font-size="11" fill="#1C1C2E" font-weight="600">#FEFCE8</text>
  <text x="574" y="534" font-family="'Courier New', monospace" font-size="9" fill="#9B9B9B" text-anchor="middle">Light / type</text>

  <!-- SECTION: TYPOGRAPHY -->
  <text x="40" y="564"
    font-family="'Courier New', monospace"
    font-size="10"
    fill="#7C5CFC"
    letter-spacing="3">TYPOGRAPHY</text>
  <rect x="40" y="570" width="600" height="0.75" fill="#4F35E8" opacity="0.3"/>

  <text x="40" y="616"
    font-family="'Georgia', serif"
    font-size="44"
    font-weight="700"
    fill="#0D0A1E"
    letter-spacing="-2">Aa — Display</text>
  <text x="42" y="636"
    font-family="'Courier New', monospace"
    font-size="10"
    fill="#9B7BFF"
    letter-spacing="3">GEORGIA BOLD · WORDMARK &amp; HEADINGS</text>

  <text x="40" y="668"
    font-family="'Georgia', serif"
    font-size="16"
    fill="#3A3A4A"
    letter-spacing="-0.2">Automate every purchase from RFQ to PO in seconds.</text>
  <text x="42" y="686"
    font-family="'Courier New', monospace"
    font-size="10"
    fill="#9B7BFF"
    letter-spacing="3">GEORGIA REGULAR · BODY COPY</text>

  <text x="40" y="716"
    font-family="'Courier New', 'DM Mono', monospace"
    font-size="13"
    fill="#4F35E8"
    letter-spacing="4">VENDOR · INVOICE · RFX · PO · AI</text>
  <text x="42" y="734"
    font-family="'Courier New', monospace"
    font-size="10"
    fill="#9B7BFF"
    letter-spacing="3">COURIER MONO · LABELS &amp; DATA</text>

  <!-- SECTION: LIGHT LOCKUP -->
  <text x="40" y="766"
    font-family="'Courier New', monospace"
    font-size="10"
    fill="#7C5CFC"
    letter-spacing="3">LIGHT LOCKUP</text>
  <rect x="40" y="772" width="600" height="0.75" fill="#4F35E8" opacity="0.3"/>

  <rect x="40" y="786" width="600" height="140" rx="20" fill="#FEFCE8"/>

  <rect x="62" y="810" width="68" height="68" rx="18" fill="#4F35E8"/>
  <polygon points="96,818 114,850 96,850" fill="#7C5CFC"/>
  <polygon points="96,870 78,838  96,838"  fill="#3520C4"/>
  <polygon points="66,844 96,828 96,860"   fill="#6245F5"/>
  <polygon points="128,844 96,828 96,860"  fill="#9B7BFF"/>
  <circle cx="96" cy="844" r="5" fill="#FEFCE8"/>
  <circle cx="116" cy="820" r="4" fill="#FF4F6A"/>

  <text x="152" y="854"
    font-family="'Georgia', serif"
    font-size="40"
    font-weight="700"
    fill="#0D0A1E"
    letter-spacing="-1.5">VEXOR</text>
  <text x="154" y="872"
    font-family="'Courier New', monospace"
    font-size="10"
    fill="#4F35E8"
    letter-spacing="4">PROCUREMENT INTELLIGENCE</text>
  <rect x="154" y="880" width="56" height="2.5" rx="1.25" fill="#FF4F6A"/>

  <text x="530" y="848"
    font-family="'Georgia', serif"
    font-size="15"
    fill="#4F35E8"
    text-anchor="middle"
    letter-spacing="-0.2">Buy smarter.</text>
  <text x="530" y="868"
    font-family="'Georgia', serif"
    font-size="15"
    fill="#0D0A1E"
    text-anchor="middle"
    letter-spacing="-0.2">Move faster.</text>

  <!-- FOOTER -->
  <rect x="40" y="940" width="600" height="0.5" fill="#4F35E8" opacity="0.2"/>
  <text x="40" y="958"
    font-family="'Courier New', monospace"
    font-size="10"
    fill="#9B9B9B"
    letter-spacing="1">© VEXOR INC. — BRAND SYSTEM v2.0</text>
  <text x="640" y="958"
    font-family="'Courier New', monospace"
    font-size="10"
    fill="#9B9B9B"
    text-anchor="end"
    letter-spacing="1">CONFIDENTIAL · 2026</text>
</svg>
